<?xml version="1.0" encoding="UTF-8" standalone="no"?>
<!-- Created with Inkscape (http://www.inkscape.org/) -->

<svg
   width="340.82581mm"
   height="302.06415mm"
   viewBox="0 0 340.82581 302.06415"
   version="1.1"
   id="svg1"
   xml:space="preserve"
   inkscape:export-filename="azul.svg"
   inkscape:export-xdpi="96"
   inkscape:export-ydpi="96"
   xmlns:inkscape="http://www.inkscape.org/namespaces/inkscape"
   xmlns:sodipodi="http://sodipodi.sourceforge.net/DTD/sodipodi-0.dtd"
   xmlns:xlink="http://www.w3.org/1999/xlink"
   xmlns="http://www.w3.org/2000/svg"
   xmlns:svg="http://www.w3.org/2000/svg"><sodipodi:namedview
     id="namedview1"
     pagecolor="#ffffff"
     bordercolor="#ffffff"
     borderopacity="1"
     inkscape:showpageshadow="true"
     inkscape:pageopacity="0.0"
     inkscape:pagecheckerboard="true"
     inkscape:deskcolor="#d1d1d1"
     inkscape:document-units="mm"
     showguides="true"
     inkscape:zoom="16"
     inkscape:cx="354.6875"
     inkscape:cy="351.03125"
     inkscape:window-width="1920"
     inkscape:window-height="1009"
     inkscape:window-x="-8"
     inkscape:window-y="-8"
     inkscape:window-maximized="1"
     inkscape:current-layer="layer1"
     inkscape:export-bgcolor="#6a6a6a00"
     showborder="false"
     borderlayer="true"
     labelstyle="default"
     inkscape:antialias-rendering="true"><sodipodi:guide
       position="130.19768,325.52319"
       orientation="0,-1"
       id="guide4"
       inkscape:locked="false" /><inkscape:page
       x="0"
       y="0"
       width="340.82581"
       height="302.06415"
       id="page4"
       margin="0"
       bleed="0" /></sodipodi:namedview><defs
     id="defs1"><color-profile
       name="Agfa-:-Swop-Standard"
       xlink:href="../../../../WINDOWS/system32/spool/drivers/color/RSWOP.icm"
       id="color-profile5" /><color-profile
       name="sRGB-IEC61966-2.1"
       xlink:href="../../../../WINDOWS/system32/spool/drivers/color/sRGB%20Color%20Space%20Profile.icm"
       id="color-profile4" /><color-profile
       name="Agfa-:-Swop-Standard"
       xlink:href="../../../../WINDOWS/system32/spool/drivers/color/RSWOP.icm"
       id="color-profile6" /><inkscape:path-effect
       effect="spiro"
       id="path-effect8696"
       is_visible="true"
       lpeversion="1" /><linearGradient
       id="swatch1"
       inkscape:swatch="solid"><stop
         style="stop-color:#2a2ad5;stop-opacity:1;"
         offset="0"
         id="stop1" /></linearGradient></defs><g
     inkscape:label="Capa 1"
     inkscape:groupmode="layer"
     id="layer1"
     transform="translate(-19.698439,-54.026353)"><path
       style="opacity:1;fill:#24221c;stroke:none;stroke-width:3.77953;stroke-opacity:1"
       d="m 328.96643,326.53221 31.55782,29.5583"
       id="path8695"
       inkscape:path-effect="#path-effect8696"
       inkscape:original-d="m 328.96643,326.53221 31.55782,29.5583" /><g
       id="g8723"
       style="fill:#ffffff;fill-opacity:0;stroke:#ffdf20;stroke-opacity:1"
       transform="matrix(1.6446851,0,0,1.614607,23.208592,-32.071886)"><path
         style="fill:#ffffff;fill-opacity:0;stroke:#ffdf20;stroke-width:9.26218;stroke-opacity:1"
         d="m 64.575467,72.975326 c 0,0 34.103297,21.167811 47.188223,35.903314 11.30312,12.72894 27.27725,26.87005 25.97589,40.74165 -0.41081,4.37904 -2.1275,9.32381 -4.62156,12.21263 -3.28318,3.80284 -12.71451,6.3099 -12.71451,6.3099 L 85.731353,167.8235 c 0,0 -9.847426,-4.83681 -13.74273,-9.01166 -3.156658,-3.38319 -7.386884,-8.37547 -7.413156,-13.66248 -0.12136,-24.41909 0,-72.174034 0,-72.174034 z"
         id="path8723" /><path
         style="fill:#ffffff;fill-opacity:0;stroke:#ffdf20;stroke-width:9.26218;stroke-opacity:1"
         d="m 103.65509,96.926873 35.55364,-24.590257 -1.17531,64.190154 c 0,0 -10.61204,-15.19358 -16.65264,-22.15165 -5.41884,-6.24189 -17.72569,-17.448247 -17.72569,-17.448247 z"
         id="path8722" /><path
         style="fill:#ffffff;fill-opacity:0;stroke:#ffdf20;stroke-width:9.26218;stroke-opacity:1"
         d="M 82.499205,81.278523 102.47977,60.520506 125.10481,81.597868 103.36126,98.204292 Z"
         id="path8721" /></g><path
       style="fill:#ffffff;fill-opacity:0;fill-rule:nonzero;stroke:#388154;stroke-width:15.0934;stroke-opacity:1"
       d="m 63.922224,236.45575 c 0,0 -6.278635,72.12837 18.800295,94.77891 19.546721,17.65386 88.035511,17.58588 88.035511,17.58588 0,0 -3.97212,-66.50511 -16.81767,-83.96097 -21.11485,-28.69294 -90.018136,-28.40382 -90.018136,-28.40382 z"
       id="path8719" /><path
       style="fill:#ffffff;fill-opacity:0;stroke:#388154;stroke-width:14.5632;stroke-opacity:1"
       d="m 312.94578,238.74422 c 0,0 4.22972,72.61163 -19.49442,94.78992 -18.49067,17.28577 -81.91846,15.63782 -81.91846,15.63782 0,0 5.14033,-66.72541 17.42058,-83.96689 20.18572,-28.34051 83.9923,-26.46085 83.9923,-26.46085 z"
       id="path8719-1" /><path
       style="fill:#ffffff;fill-opacity:0;stroke:#388154;stroke-width:14.5612;stroke-opacity:1"
       d="m 179.03359,349.01789 -0.82563,-95.49559 27.43598,-0.0437 -1.0728,95.51038 z"
       id="path8718"
       sodipodi:nodetypes="ccccc" /></g></svg>
